<svg width="20" height="20" viewBox="0 0 20 20" fill="none" xmlns="http://www.w3.org/2000/svg">
<path d="M2 15.3333C2 15.8222 2.4 16.2222 2.88889 16.2222H7.33333V14.4444H2.88889C2.4 14.4444 2 14.8444 2 15.3333ZM2 4.66667C2 5.15556 2.4 5.55556 2.88889 5.55556H10.8889V3.77778H2.88889C2.4 3.77778 2 4.17778 2 4.66667ZM10.8889 17.1111V16.2222H17.1111C17.6 16.2222 18 15.8222 18 15.3333C18 14.8444 17.6 14.4444 17.1111 14.4444H10.8889V13.5556C10.8889 13.0667 10.4889 12.6667 10 12.6667C9.51111 12.6667 9.11111 13.0667 9.11111 13.5556V17.1111C9.11111 17.6 9.51111 18 10 18C10.4889 18 10.8889 17.6 10.8889 17.1111ZM5.55556 8.22222V9.11111H2.88889C2.4 9.11111 2 9.51111 2 10C2 10.4889 2.4 10.8889 2.88889 10.8889H5.55556V11.7778C5.55556 12.2667 5.95556 12.6667 6.44444 12.6667C6.93333 12.6667 7.33333 12.2667 7.33333 11.7778V8.22222C7.33333 7.73333 6.93333 7.33333 6.44444 7.33333C5.95556 7.33333 5.55556 7.73333 5.55556 8.22222ZM18 10C18 9.51111 17.6 9.11111 17.1111 9.11111H9.11111V10.8889H17.1111C17.6 10.8889 18 10.4889 18 10ZM13.5556 7.33333C14.0444 7.33333 14.4444 6.93333 14.4444 6.44444V5.55556H17.1111C17.6 5.55556 18 5.15556 18 4.66667C18 4.17778 17.6 3.77778 17.1111 3.77778H14.4444V2.88889C14.4444 2.4 14.0444 2 13.5556 2C13.0667 2 12.6667 2.4 12.6667 2.88889V6.44444C12.6667 6.93333 13.0667 7.33333 13.5556 7.33333Z" fill="black"/>
</svg>
