<svg width="37" height="36" viewBox="0 0 37 36" fill="none" xmlns="http://www.w3.org/2000/svg">
<path d="M24.0941 21.6185L23.168 20.6923V17.1026C23.168 14.8985 21.9905 13.0533 19.9372 12.5651V12.0769C19.9372 11.481 19.4562 11 18.8603 11C18.2644 11 17.7834 11.481 17.7834 12.0769V12.5651C15.7228 13.0533 14.5526 14.8913 14.5526 17.1026V20.6923L13.6264 21.6185C13.1741 22.0708 13.49 22.8462 14.129 22.8462H23.5844C24.2305 22.8462 24.5464 22.0708 24.0941 21.6185ZM21.7321 21.4103H15.9885V17.1026C15.9885 15.3221 17.0726 13.8718 18.8603 13.8718C20.648 13.8718 21.7321 15.3221 21.7321 17.1026V21.4103ZM18.8603 25C19.65 25 20.2962 24.3538 20.2962 23.5641H17.4244C17.4244 24.3538 18.0634 25 18.8603 25Z" fill="#474747"/>
</svg>
