<svg width="24" height="25" viewBox="0 0 33 25" fill="none" xmlns="http://www.w3.org/2000/svg">
<mask id="mask0_1007_11234" style="mask-type:alpha" maskUnits="userSpaceOnUse" x="0" y="0" width="24" height="25">
<rect y="0.71875" width="24" height="24" fill="#D9D9D9"/>
</mask>
<g mask="url(#mask0_1007_11239)">
<path d="M8.6998 20.0189C8.4498 20.0189 8.23714 19.9356 8.0618 19.7689C7.88714 19.6023 7.7998 19.3856 7.7998 19.1189V17.7939C7.7998 17.2773 7.93314 16.8189 8.1998 16.4189C8.46647 16.0189 8.8248 15.7023 9.2748 15.4689C10.2248 15.0189 11.1791 14.6649 12.1378 14.4069C13.0958 14.1483 14.1498 14.0189 15.2998 14.0189C16.4498 14.0189 17.5041 14.1483 18.4628 14.4069C19.4208 14.6649 20.3748 15.0189 21.3248 15.4689C21.7748 15.7023 22.1331 16.0189 22.3998 16.4189C22.6665 16.8189 22.7998 17.2773 22.7998 17.7939V19.1189C22.7998 19.3856 22.7125 19.6023 22.5378 19.7689C22.3625 19.9356 22.1498 20.0189 21.8998 20.0189H8.6998ZM24.3998 20.0189C24.5331 19.9189 24.6331 19.7899 24.6998 19.6319C24.7665 19.4733 24.7998 19.3023 24.7998 19.1189V17.6689C24.7998 17.0189 24.6371 16.3979 24.3118 15.8059C23.9871 15.2146 23.5331 14.7023 22.9498 14.2689C23.6165 14.3689 24.2498 14.5229 24.8498 14.7309C25.4498 14.9396 26.0248 15.1856 26.5748 15.4689C27.0915 15.7523 27.4915 16.0816 27.7748 16.4569C28.0581 16.8316 28.1998 17.2356 28.1998 17.6689V19.1189C28.1998 19.3856 28.1125 19.6023 27.9378 19.7689C27.7625 19.9356 27.5498 20.0189 27.2998 20.0189H24.3998ZM15.2998 12.4189C14.3331 12.4189 13.5081 12.0729 12.8248 11.3809C12.1415 10.6896 11.7998 9.86895 11.7998 8.91895C11.7998 7.95228 12.1415 7.12728 12.8248 6.44395C13.5081 5.76061 14.3331 5.41895 15.2998 5.41895C16.2665 5.41895 17.0915 5.76061 17.7748 6.44395C18.4581 7.12728 18.7998 7.95228 18.7998 8.91895C18.7998 9.86895 18.4581 10.6896 17.7748 11.3809C17.0915 12.0729 16.2665 12.4189 15.2998 12.4189ZM23.9248 8.91895C23.9248 9.86895 23.5831 10.6896 22.8998 11.3809C22.2165 12.0729 21.3915 12.4189 20.4248 12.4189C20.3248 12.4189 20.1871 12.4063 20.0118 12.3809C19.8371 12.3563 19.6915 12.3273 19.5748 12.2939C19.9748 11.8106 20.2791 11.2816 20.4878 10.7069C20.6958 10.1316 20.7998 9.53561 20.7998 8.91895C20.7998 8.28561 20.6915 7.68561 20.4748 7.11895C20.2581 6.55228 19.9581 6.02728 19.5748 5.54395C19.7081 5.49395 19.8498 5.46061 19.9998 5.44395C20.1498 5.42728 20.2915 5.41895 20.4248 5.41895C21.3915 5.41895 22.2165 5.76061 22.8998 6.44395C23.5831 7.12728 23.9248 7.95228 23.9248 8.91895ZM9.2998 18.5189H21.2998V17.7939C21.2998 17.5939 21.2458 17.4106 21.1378 17.2439C21.0291 17.0773 20.8665 16.9356 20.6498 16.8189C19.8165 16.4023 18.9665 16.0813 18.0998 15.8559C17.2331 15.6313 16.2998 15.5189 15.2998 15.5189C14.2998 15.5189 13.3625 15.6313 12.4878 15.8559C11.6125 16.0813 10.7665 16.4023 9.9498 16.8189C9.71647 16.9356 9.5498 17.0773 9.4498 17.2439C9.3498 17.4106 9.2998 17.5939 9.2998 17.7939V18.5189ZM15.2998 10.9189C15.8498 10.9189 16.3208 10.7229 16.7128 10.3309C17.1041 9.93961 17.2998 9.46895 17.2998 8.91895C17.2998 8.36895 17.1041 7.89795 16.7128 7.50595C16.3208 7.11461 15.8498 6.91895 15.2998 6.91895C14.7498 6.91895 14.2791 7.11461 13.8878 7.50595C13.4958 7.89795 13.2998 8.36895 13.2998 8.91895C13.2998 9.46895 13.4958 9.93961 13.8878 10.3309C14.2791 10.7229 14.7498 10.9189 15.2998 10.9189Z" fill="#0A3998"/>
</g>
</svg>
