<svg width="20" height="20" viewBox="0 0 20 20" fill="none" xmlns="http://www.w3.org/2000/svg">
<path d="M10 4C6.682 4 4 6.682 4 10C4 13.318 6.682 16 10 16C13.318 16 16 13.318 16 10C16 6.682 13.318 4 10 4ZM12.58 12.58C12.346 12.814 11.968 12.814 11.734 12.58L10 10.846L8.266 12.58C8.032 12.814 7.654 12.814 7.42 12.58C7.186 12.346 7.186 11.968 7.42 11.734L9.154 10L7.42 8.266C7.186 8.032 7.186 7.654 7.42 7.42C7.654 7.186 8.032 7.186 8.266 7.42L10 9.154L11.734 7.42C11.968 7.186 12.346 7.186 12.58 7.42C12.814 7.654 12.814 8.032 12.58 8.266L10.846 10L12.58 11.734C12.808 11.962 12.808 12.346 12.58 12.58Z" fill="#757575"/>
</svg>
